# xmcd
#
# Track frame offsets: 
#        150
#        11695
#        25332
#        37320
#        48547
#        63160
#        75912
#        87005
#        98717
#        107902
#        118747
#        131467
#        140680
#        151095
#        160327
#        172087
#        182195
#        193110
#        205032
#
# Disc length: 2905 seconds
#
# Revision: 2
# Processed by: cddbd v1.5.2PL0 Copyright (c) Steve Scherf et al.
# Submitted via: ExactAudioCopyFreeDBPlugin 1.0
#
DISCID=010b5713
DTITLE=Various Artist - Goldwax Collection
DYEAR=1991
DGENRE=Soul
TTITLE0=James Carr - The Dark End of the Street
TTITLE1=James Carr - That's the Way Love Turned Out for Me
TTITLE2=James Carr - Pouring Water on a Drowning Man
TTITLE3=James Carr - These Ain't Raindrops
TTITLE4=The Ovations - It's Wonderful to Be in Love
TTITLE5=The Ovations - I'm Living Good
TTITLE6=The Ovations - I Like Summertime
TTITLE7=Spencer Wiggins - Take Me Just as I Am
TTITLE8=Spencer Wiggins - Soul City U.S.A.
TTITLE9=Spencer Wiggins - Let's Talk it Over
TTITLE10=Spencer Wiggins - Love Attack
TTITLE11=Percy Milem - Crying Baby, Baby, Baby
TTITLE12=Percy Milem - Call on Me
TTITLE13=The Lyrics - So Hard to Get Along
TTITLE14=George and Greer - Good Times
TTITLE15=George and Greer - You Didn't Know it But You Had Me
TTITLE16=Eddie Jefferson - When You Look in the Mirror
TTITLE17="Wee" Willie Walker - From Warm to Cool
TTITLE18="Wee" Willie Walker - There Goes My Used to Be
EXTD=
EXTT0=
EXTT1=
EXTT2=
EXTT3=
EXTT4=
EXTT5=
EXTT6=
EXTT7=
EXTT8=
EXTT9=
EXTT10=
EXTT11=
EXTT12=
EXTT13=
EXTT14=
EXTT15=
EXTT16=
EXTT17=
EXTT18=
PLAYORDER=
